<svg xmlns="http://www.w3.org/2000/svg" width="158.92" height="21.75" viewBox="0 0 158.92 21.75"><defs><style>.a{fill:#2c2f3b;}</style></defs><path class="a" d="M2.494,0H.464L7.221-18.1q.174-.406-.072-.609a1.092,1.092,0,0,0-.71-.2H6V-20.3H9.338a2.2,2.2,0,0,1,2.349,1.334l7.25,17.11a.75.75,0,0,0,.754.464h.7V0h-2.2q-2,0-2.494-1.247L13.4-6.554H4.988ZM8.961-17.081,5.626-8.439h7.018Zm12.006-1.827V-20.3h2.117a2.982,2.982,0,0,1,1.856.551,1.913,1.913,0,0,1,.725,1.624v7.859L36.1-20.3h2.639l-8.787,8.526L38.193-1.682a.8.8,0,0,0,.667.29h.609V0H37.12a2.593,2.593,0,0,1-2.291-1.044L27.782-9.222,25.665-7.337V-2.03Q25.665,0,23.316,0h-.9V-18.038a.834.834,0,0,0-.247-.638.874.874,0,0,0-.624-.232ZM40.774-20.3h8.062a14.664,14.664,0,0,1,4.249.551,7,7,0,0,1,2.8,1.479,5.928,5.928,0,0,1,1.435,1.986,5.69,5.69,0,0,1,.45,2.248A5.611,5.611,0,0,1,56.4-10.324a7.442,7.442,0,0,1-4.611,2.175l5.278,6.438a.8.8,0,0,0,.7.319h.58V0h-2.32a2.464,2.464,0,0,1-2.291-1.044l-5.51-6.7H45.472V-2.03q0,2.03-2.32,2.03h-.928V-18.038a.769.769,0,0,0-.87-.87h-.58Zm4.7,1.914v8.758H48.43a7.484,7.484,0,0,0,4.423-1.1A3.853,3.853,0,0,0,54.4-14.007a3.661,3.661,0,0,0-1.581-3.248,7.524,7.524,0,0,0-4.393-1.131ZM61.712,0h-2.03l6.757-18.1q.174-.406-.072-.609a1.092,1.092,0,0,0-.711-.2h-.435V-20.3h3.335A2.2,2.2,0,0,1,70.9-18.966l7.25,17.11a.75.75,0,0,0,.754.464h.7V0H77.4q-2,0-2.494-1.247L72.616-6.554h-8.41Zm6.467-17.081L64.844-8.439h7.018Zm12.006-1.827V-20.3H82.07a3.154,3.154,0,0,1,2.668,1.131L95.526-4.93V-20.3h1.885V0h-.58a2.959,2.959,0,0,1-2.494-1.131L83.52-15.428V0H81.635V-18.038a.769.769,0,0,0-.87-.87ZM100.05-17.69a2.991,2.991,0,0,1,.565-1.87,1.906,1.906,0,0,1,1.61-.74h13.688a.769.769,0,0,0,.87-.87v-.58h1.392v.783a2.982,2.982,0,0,1-.551,1.856,1.913,1.913,0,0,1-1.624.725h-5.307V-2q0,2-2.32,2h-.928V-18.386h-5.1a.815.815,0,0,0-.9.87v.58H100.05ZM119.6-18.908V-20.3h2.117a3.031,3.031,0,0,1,1.885.551,1.913,1.913,0,0,1,.725,1.624v6.931h9.28v-7.1q0-2,2.32-2h.957V-2.262a.769.769,0,0,0,.87.87h.58V0h-2.117a3.031,3.031,0,0,1-1.885-.551,1.913,1.913,0,0,1-.725-1.624V-9.309h-9.28V-2q0,2-2.32,2h-.957V-18.038a.834.834,0,0,0-.246-.638.874.874,0,0,0-.623-.232ZM141.491,0h-2.03l6.757-18.1q.174-.406-.072-.609a1.092,1.092,0,0,0-.71-.2H145V-20.3h3.335a2.2,2.2,0,0,1,2.349,1.334l7.25,17.11a.75.75,0,0,0,.754.464h.7V0h-2.2q-2,0-2.494-1.247l-2.291-5.307h-8.41Zm6.467-17.081-3.335,8.642h7.018Z" transform="translate(-0.464 21.75)"/></svg>